<svg width="210" height="78" viewBox="0 0 210 78" fill="none" xmlns="http://www.w3.org/2000/svg">
<circle cx="36.3071" cy="36.3071" r="35.5809" stroke="#D4AF37" stroke-width="1.45228"/>
<circle cx="16.1209" cy="36.162" r="1.56556" fill="#D4AF37" stroke="#D4AF37" stroke-width="0.0639004"/>
<circle cx="36.162" cy="24.5428" r="1.56556" fill="#D4AF37" stroke="#D4AF37" stroke-width="0.0639004"/>
<circle cx="47.4901" cy="36.162" r="1.56556" fill="#D4AF37" stroke="#D4AF37" stroke-width="0.0639004"/>
<circle cx="25.1249" cy="36.162" r="1.56556" fill="#D4AF37" stroke="#D4AF37" stroke-width="0.0639004"/>
<circle cx="56.785" cy="36.162" r="1.56556" fill="#D4AF37" stroke="#D4AF37" stroke-width="0.0639004"/>
<circle cx="36.453" cy="47.7792" r="1.56556" fill="#D4AF37" stroke="#D4AF37" stroke-width="0.0639004"/>
<circle cx="36.3078" cy="36.3078" r="1.42324" fill="#D4AF37" stroke="#D4AF37" stroke-width="0.0580913"/>
<circle cx="36.3077" cy="36.3077" r="11.3859" stroke="#D4AF37" stroke-width="0.46473"/>
<circle cx="36.3071" cy="24.1079" r="23.6257" stroke="#D4AF37" stroke-width="0.964315"/>
<circle cx="36.3071" cy="48.2153" r="23.6257" stroke="#D4AF37" stroke-width="0.964315"/>
<line y1="36.1614" x2="72.0332" y2="36.1614" stroke="#D4AF37" stroke-width="0.290456"/>
<line x1="36.1608" y1="24.6876" x2="36.4513" y2="47.6337" stroke="#D4AF37" stroke-width="0.290456"/>
<path d="M88.0078 65.3521V5.51812C88.1323 4.21107 88.1323 3.77538 88.6302 1.74219C88.7132 1.98423 88.8792 3.07829 88.8792 5.51812V65.3521C88.8792 66.0783 88.8169 67.3853 88.3813 69.9995C88.2568 69.5638 88.0078 68.0243 88.0078 65.3521Z" fill="#08376B" stroke="#08376B" stroke-width="0.290456"/>
<path d="M97.1005 16.2822C97.1005 14.95 97.342 13.7177 97.8249 12.5853C98.3245 11.4529 99.0156 10.4704 99.8982 9.63776C100.781 8.80512 101.797 8.15566 102.946 7.68938C104.111 7.2231 105.36 6.98996 106.693 6.98996C107.942 6.98996 109.107 7.08988 110.19 7.28971C111.272 7.48954 112.096 7.67272 112.663 7.83925L113.187 11.3863L112.438 11.5362C112.138 10.7368 111.688 10.0957 111.089 9.61278C110.506 9.11319 109.832 8.75516 109.066 8.53867C108.3 8.30553 107.517 8.18896 106.718 8.18896C105.219 8.18896 103.928 8.50537 102.846 9.13817C101.763 9.75433 100.931 10.612 100.348 11.711C99.765 12.8101 99.4736 14.0757 99.4736 15.5079C99.4736 16.6736 99.6817 17.781 100.098 18.8301C100.514 19.8793 101.081 20.8118 101.797 21.6278C102.529 22.4438 103.37 23.0849 104.32 23.5512C105.285 24.0008 106.318 24.2256 107.417 24.2256C108.016 24.2256 108.633 24.1507 109.265 24.0008C109.915 23.8343 110.581 23.5845 111.264 23.2515V19.4796C110.897 19.3131 110.498 19.2048 110.065 19.1549C109.632 19.1049 109.299 19.0799 109.066 19.0799V18.2806H114.811V19.0799C114.611 19.0799 114.361 19.1299 114.061 19.2298C113.778 19.3131 113.57 19.3963 113.437 19.4796V23.1016C113.487 23.2181 113.579 23.3347 113.712 23.4513C113.845 23.5512 113.97 23.6345 114.086 23.7011V24.5754C113.387 24.6087 112.679 24.6919 111.963 24.8251C111.264 24.9417 110.531 25.0583 109.765 25.1749C108.999 25.2914 108.175 25.3497 107.292 25.3497C105.31 25.3497 103.553 24.975 102.021 24.2256C100.489 23.4763 99.282 22.4271 98.3994 21.0783C97.5335 19.7127 97.1005 18.1141 97.1005 16.2822ZM115.906 25V24.2506C116.089 24.2506 116.347 24.2256 116.68 24.1757C117.03 24.1257 117.363 24.0258 117.679 23.8759L123.974 8.3888L123.599 7.33967L125.648 6.59029L131.917 23.851C132.25 24.0175 132.6 24.1257 132.966 24.1757C133.333 24.2256 133.616 24.2506 133.816 24.2506V25H127.396V24.2506C127.629 24.2506 127.962 24.2256 128.395 24.1757C128.828 24.1257 129.228 24.0175 129.594 23.851L127.746 18.7802H121.201L119.128 23.851C119.511 24.0175 119.911 24.1257 120.327 24.1757C120.76 24.2256 121.093 24.2506 121.326 24.2506V25H115.906ZM121.726 17.5062H127.296L124.673 10.2872L121.726 17.5062ZM134.667 25V24.2506C134.9 24.2506 135.233 24.2256 135.666 24.1757C136.099 24.1257 136.499 24.0175 136.865 23.851V8.48871C136.499 8.32219 136.099 8.21394 135.666 8.16398C135.233 8.11402 134.9 8.08905 134.667 8.08905V7.33967H141.237V8.08905C141.003 8.08905 140.67 8.11402 140.237 8.16398C139.821 8.21394 139.421 8.32219 139.038 8.48871V23.7261H145.733C145.933 23.5096 146.132 23.2265 146.332 22.8768C146.549 22.5104 146.74 22.1524 146.907 21.8027C147.09 21.4529 147.215 21.2032 147.281 21.0533L148.056 21.3031L146.907 25H134.667ZM149.401 25V24.2506C149.634 24.2506 149.967 24.2256 150.4 24.1757C150.833 24.1257 151.233 24.0175 151.599 23.851V8.48871C151.233 8.32219 150.833 8.21394 150.4 8.16398C149.967 8.11402 149.634 8.08905 149.401 8.08905V7.33967H155.97V8.08905C155.737 8.08905 155.404 8.11402 154.971 8.16398C154.555 8.21394 154.155 8.32219 153.772 8.48871V23.7261H160.467C160.666 23.5096 160.866 23.2265 161.066 22.8768C161.283 22.5104 161.474 22.1524 161.641 21.8027C161.824 21.4529 161.949 21.2032 162.015 21.0533L162.79 21.3031L161.641 25H149.401ZM164.135 25V24.2506C164.368 24.2506 164.701 24.2256 165.134 24.1757C165.567 24.1257 165.967 24.0175 166.333 23.851V8.48871C165.967 8.32219 165.567 8.21394 165.134 8.16398C164.701 8.11402 164.368 8.08905 164.135 8.08905V7.33967H175.75L175.875 10.7368L175.076 10.7868C175.059 10.5037 175.009 10.1623 174.926 9.76266C174.859 9.36299 174.743 8.97997 174.576 8.61361H168.506V15.1832H173.727C173.81 14.8501 173.868 14.5254 173.902 14.209C173.935 13.8926 173.952 13.6344 173.952 13.4346H174.751V18.4305H173.952C173.952 18.214 173.935 17.9225 173.902 17.5562C173.868 17.1732 173.785 16.8068 173.652 16.4571H168.506V23.7261H175.076C175.292 23.443 175.492 23.1099 175.675 22.7269C175.875 22.3439 176.041 21.9942 176.175 21.6778C176.308 21.3447 176.383 21.1282 176.4 21.0283L177.199 21.2281L176.375 25H164.135ZM179.064 25V24.2506C179.297 24.2506 179.63 24.2256 180.063 24.1757C180.496 24.1257 180.896 24.0175 181.262 23.851V8.43875C180.896 8.32219 180.504 8.2639 180.088 8.2639C179.688 8.2639 179.372 8.27223 179.139 8.28888L179.064 7.5395C180.163 7.40628 181.262 7.28138 182.361 7.16481C183.477 7.04824 184.501 6.98996 185.433 6.98996C186.549 6.98996 187.557 7.12318 188.456 7.38963C189.355 7.63942 190.071 8.08072 190.604 8.71353C191.137 9.34634 191.403 10.2123 191.403 11.3114C191.403 11.8609 191.279 12.4354 191.029 13.0349C190.796 13.6178 190.396 14.184 189.83 14.7335C189.28 15.2831 188.531 15.7577 187.582 16.1573C187.881 16.6902 188.239 17.2897 188.656 17.9559C189.072 18.622 189.513 19.2881 189.98 19.9542C190.446 20.6203 190.896 21.2365 191.329 21.8027C191.745 22.3189 192.136 22.7685 192.503 23.1515C192.886 23.5346 193.319 23.8676 193.801 24.1507C194.301 24.4338 194.909 24.7169 195.625 25L195.4 25.7244C194.251 25.6411 193.319 25.4996 192.602 25.2998C191.903 25.0999 191.312 24.8251 190.829 24.4754C190.363 24.1091 189.905 23.6761 189.455 23.1765C189.189 22.8768 188.881 22.4521 188.531 21.9026C188.181 21.353 187.823 20.7619 187.457 20.129C187.09 19.4796 186.732 18.8551 186.383 18.2556C186.05 17.6561 185.766 17.1565 185.533 16.7568C185.217 16.8235 184.884 16.8901 184.534 16.9567C184.184 17.0066 183.818 17.0483 183.435 17.0816V23.851C183.818 24.0175 184.234 24.1257 184.684 24.1757C185.134 24.2256 185.483 24.2506 185.733 24.2506V25H179.064ZM183.435 16.1823C184.717 16.1324 185.783 15.8909 186.632 15.4579C187.498 15.025 188.148 14.4921 188.581 13.8593C189.014 13.2264 189.23 12.577 189.23 11.9109C189.23 10.9284 188.98 10.154 188.481 9.5878C187.981 9.00495 187.29 8.61361 186.408 8.41378C185.542 8.19729 184.551 8.16398 183.435 8.31386V16.1823ZM198.546 25V24.2506C198.779 24.2506 199.113 24.2256 199.546 24.1757C199.978 24.1257 200.378 24.0175 200.745 23.851V18.0058L195.474 8.48871C195.157 8.32219 194.808 8.21394 194.425 8.16398C194.058 8.11402 193.775 8.08905 193.575 8.08905V7.33967H200.17V8.08905C199.937 8.08905 199.612 8.11402 199.196 8.16398C198.779 8.21394 198.38 8.32219 197.997 8.48871L202.193 16.0824L206.44 8.48871C206.073 8.32219 205.674 8.21394 205.241 8.16398C204.808 8.11402 204.475 8.08905 204.242 8.08905V7.33967H209.687V8.08905C209.504 8.08905 209.237 8.11402 208.888 8.16398C208.555 8.21394 208.23 8.31386 207.914 8.46373L202.918 17.4812V23.851C203.301 24.0175 203.7 24.1257 204.117 24.1757C204.55 24.2256 204.883 24.2506 205.116 24.2506V25H198.546ZM97.1005 57V56.2506C97.3337 56.2506 97.6667 56.2256 98.0997 56.1757C98.5327 56.1257 98.9323 56.0175 99.2987 55.851V40.4887C98.9323 40.3222 98.5327 40.2139 98.0997 40.164C97.6667 40.114 97.3337 40.089 97.1005 40.089V39.3397H108.716L108.841 42.7368L108.041 42.7868C108.025 42.5037 107.975 42.1623 107.892 41.7627C107.825 41.363 107.708 40.98 107.542 40.6136H101.472V47.1832H106.693C106.776 46.8501 106.834 46.5254 106.867 46.209C106.901 45.8926 106.917 45.6344 106.917 45.4346H107.717V50.4305H106.917C106.917 50.214 106.901 49.9225 106.867 49.5562C106.834 49.1732 106.751 48.8068 106.618 48.4571H101.472V55.7261H108.041C108.258 55.443 108.458 55.1099 108.641 54.7269C108.841 54.3439 109.007 53.9942 109.141 53.6778C109.274 53.3447 109.349 53.1282 109.365 53.0283L110.165 53.2281L109.34 57H97.1005ZM126.592 57.3497L115.377 42.4621V55.851C115.76 56.0175 116.159 56.1257 116.576 56.1757C117.009 56.2256 117.342 56.2506 117.575 56.2506V57H111.78V56.2506C112.013 56.2506 112.346 56.2256 112.779 56.1757C113.212 56.1257 113.612 56.0175 113.978 55.851V40.4887C113.612 40.3222 113.212 40.2139 112.779 40.164C112.346 40.114 112.013 40.089 111.78 40.089V39.3397H115.751L126.318 53.328V40.4887C125.951 40.3222 125.552 40.2139 125.119 40.164C124.686 40.114 124.353 40.089 124.119 40.089V39.3397H129.915V40.089C129.682 40.089 129.348 40.114 128.916 40.164C128.499 40.2139 128.1 40.3222 127.717 40.4887V57.3497H126.592ZM129.249 57V56.2506C129.432 56.2506 129.69 56.2256 130.023 56.1757C130.373 56.1257 130.706 56.0258 131.023 55.8759L137.317 40.3888L136.943 39.3397L138.991 38.5903L145.261 55.851C145.594 56.0175 145.943 56.1257 146.31 56.1757C146.676 56.2256 146.959 56.2506 147.159 56.2506V57H140.739V56.2506C140.973 56.2506 141.306 56.2256 141.739 56.1757C142.172 56.1257 142.571 56.0175 142.938 55.851L141.089 50.7802H134.545L132.471 55.851C132.854 56.0175 133.254 56.1257 133.67 56.1757C134.103 56.2256 134.436 56.2506 134.67 56.2506V57H129.249ZM135.069 49.5062H140.64L138.017 42.2872L135.069 49.5062ZM148.01 57V56.2506C148.244 56.2506 148.577 56.2256 149.01 56.1757C149.443 56.1257 149.842 56.0175 150.209 55.851V40.4388C149.842 40.3222 149.451 40.2639 149.035 40.2639C148.635 40.2639 148.318 40.2722 148.085 40.2889L148.01 39.5395C149.143 39.3896 150.3 39.2647 151.483 39.1648C152.682 39.0482 153.872 38.99 155.055 38.99C157.203 38.99 159.126 39.3313 160.825 40.0141C162.523 40.6802 163.856 41.6794 164.821 43.0116C165.804 44.3272 166.295 45.9592 166.295 47.9076C166.295 49.2398 165.979 50.4971 165.346 51.6794C164.713 52.8618 163.856 53.8776 162.773 54.7269C161.707 55.5595 160.492 56.159 159.126 56.5254C158.577 56.6753 157.861 56.7918 156.978 56.8751C156.112 56.9584 155.288 57 154.505 57H148.01ZM152.382 55.2764C152.815 55.443 153.298 55.5762 153.831 55.6761C154.363 55.776 154.946 55.826 155.579 55.826C157.211 55.826 158.643 55.5346 159.876 54.9517C161.124 54.3689 162.099 53.5362 162.798 52.4538C163.498 51.3713 163.847 50.0807 163.847 48.582C163.847 47.0999 163.547 45.7926 162.948 44.6602C162.365 43.5279 161.549 42.6036 160.5 41.8876C159.451 41.1548 158.235 40.6552 156.853 40.3888C155.471 40.1057 153.98 40.0807 152.382 40.3139V55.2764ZM167.794 57V56.2506C168.027 56.2506 168.36 56.2256 168.793 56.1757C169.226 56.1257 169.626 56.0175 169.992 55.851V40.4887C169.626 40.3222 169.226 40.2139 168.793 40.164C168.36 40.114 168.027 40.089 167.794 40.089V39.3397H179.409L179.534 42.7368L178.735 42.7868C178.718 42.5037 178.668 42.1623 178.585 41.7627C178.518 41.363 178.402 40.98 178.235 40.6136H172.165V47.4579H177.286C177.386 47.1249 177.452 46.8001 177.486 46.4837C177.519 46.1507 177.536 45.8926 177.536 45.7094H178.285V50.7052H177.536C177.536 50.4887 177.519 50.1973 177.486 49.831C177.452 49.4479 177.369 49.0816 177.236 48.7319H172.165V55.851C172.581 56.0175 173.023 56.1257 173.489 56.1757C173.955 56.2256 174.322 56.2506 174.588 56.2506V57H167.794ZM181.406 57V56.2506C181.639 56.2506 181.972 56.2256 182.405 56.1757C182.838 56.1257 183.237 56.0175 183.604 55.851V40.4887C183.237 40.3222 182.838 40.2139 182.405 40.164C181.972 40.114 181.639 40.089 181.406 40.089V39.3397H187.975V40.089C187.742 40.089 187.409 40.114 186.976 40.164C186.56 40.2139 186.16 40.3222 185.777 40.4887V55.851C186.16 56.0175 186.56 56.1257 186.976 56.1757C187.409 56.2256 187.742 56.2506 187.975 56.2506V57H181.406Z" fill="#08376B"/>
<path d="M98.3517 72.3809L102.117 63.1891H102.137L105.903 72.3809H104.707L103.659 69.7419H100.546L99.4883 72.3809H98.3517ZM100.921 68.803H103.284L102.582 67.0437C102.496 66.8197 102.414 66.599 102.335 66.3815C102.256 66.1641 102.177 65.9038 102.098 65.6007C102.019 65.9038 101.943 66.1641 101.87 66.3815C101.798 66.5924 101.715 66.8131 101.623 67.0437L100.921 68.803ZM107.357 72.3809V63.4856H109.591C110.151 63.4856 110.632 63.5976 111.034 63.8217C111.436 64.0457 111.746 64.3422 111.963 64.7112C112.187 65.0736 112.299 65.4722 112.299 65.9071C112.299 66.3947 112.161 66.8329 111.884 67.2216C111.607 67.6104 111.228 67.897 110.747 68.0815L113.732 72.3809H112.418L109.591 68.2891H108.484V72.3809H107.357ZM108.484 67.3402H109.591C109.973 67.3402 110.283 67.271 110.52 67.1327C110.764 66.9877 110.942 66.8065 111.054 66.5891C111.172 66.365 111.232 66.1377 111.232 65.9071C111.232 65.492 111.08 65.1527 110.777 64.8891C110.48 64.6255 110.085 64.4938 109.591 64.4938H108.484V67.3402ZM113.576 64.4938V63.4856H119.446V64.4938H117.074V72.3809H115.948V64.4938H113.576Z" fill="#346193"/>
</svg>
